<svg xmlns="http://www.w3.org/2000/svg" viewBox="0 0 112 24" width="112" height="24" role="img" aria-label="sparkline, start-relative percent move"><line data-guide="true" x1="2" y1="21.53" x2="111" y2="21.53" stroke="currentColor" stroke-opacity="0.16" stroke-width="0.8" /><line data-guide="true" x1="2" y1="19.02" x2="111" y2="19.02" stroke="currentColor" stroke-opacity="0.16" stroke-width="0.8" /><line data-guide="true" x1="2" y1="16.51" x2="111" y2="16.51" stroke="currentColor" stroke-opacity="0.16" stroke-width="0.8" /><text x="111" y="18.02" font-size="4" text-anchor="end" fill="currentColor" fill-opacity="0.42">10%</text><text x="111" y="15.51" font-size="4" text-anchor="end" fill="currentColor" fill-opacity="0.42">20%</text><polyline fill="none" stroke="#5b74db" stroke-width="1.8" points="2.00,21.53 7.68,22.00 13.37,21.44 19.05,20.45 24.74,21.04 30.42,20.23 36.11,20.82 41.79,20.73 47.47,20.20 53.16,20.36 58.84,19.33 64.53,18.96 70.21,17.88 75.89,10.28 81.58,2.00 87.26,4.60 92.95,5.57 98.63,6.56 104.32,9.44 110.00,8.39" /><circle cx="110.00" cy="8.39" r="2.2" fill="#5b74db" /></svg>