<svg xmlns="http://www.w3.org/2000/svg" viewBox="0 0 112 24" width="112" height="24" role="img" aria-label="sparkline, start-relative percent move"><line data-guide="true" x1="2" y1="17.68" x2="111" y2="17.68" stroke="currentColor" stroke-opacity="0.16" stroke-width="0.8" /><line data-guide="true" x1="2" y1="12.41" x2="111" y2="12.41" stroke="currentColor" stroke-opacity="0.16" stroke-width="0.8" /><line data-guide="true" x1="2" y1="7.15" x2="111" y2="7.15" stroke="currentColor" stroke-opacity="0.16" stroke-width="0.8" /><text x="111" y="11.41" font-size="4" text-anchor="end" fill="currentColor" fill-opacity="0.42">10%</text><text x="111" y="6.15" font-size="4" text-anchor="end" fill="currentColor" fill-opacity="0.42">20%</text><polyline fill="none" stroke="#5b74db" stroke-width="1.8" points="2.00,17.68 7.68,20.59 13.37,20.59 19.05,21.60 24.74,22.00 30.42,19.74 36.11,21.60 41.79,17.78 47.47,18.58 53.16,18.13 58.84,16.52 64.53,17.08 70.21,15.22 75.89,11.60 81.58,2.00 87.26,6.42 92.95,7.73 98.63,6.72 104.32,5.37 110.00,6.97" /><circle cx="110.00" cy="6.97" r="2.2" fill="#5b74db" /></svg>