<svg xmlns="http://www.w3.org/2000/svg" viewBox="0 0 112 24" width="112" height="24" role="img" aria-label="sparkline, start-relative percent move"><line data-guide="true" x1="2" y1="22.21" x2="111" y2="22.21" stroke="currentColor" stroke-opacity="0.16" stroke-width="0.8" /><line data-guide="true" x1="2" y1="14.63" x2="111" y2="14.63" stroke="currentColor" stroke-opacity="0.16" stroke-width="0.8" /><line data-guide="true" x1="2" y1="7.05" x2="111" y2="7.05" stroke="currentColor" stroke-opacity="0.16" stroke-width="0.8" /><text x="111" y="21.21" font-size="4" text-anchor="end" fill="currentColor" fill-opacity="0.42">-10%</text><text x="111" y="6.05" font-size="4" text-anchor="end" fill="currentColor" fill-opacity="0.42">10%</text><polyline fill="none" stroke="#5b74db" stroke-width="1.8" points="2.00,14.63 7.68,20.65 13.37,16.74 19.05,19.59 24.74,22.00 30.42,8.17 36.11,13.43 41.79,12.98 47.47,11.92 53.16,2.15 58.84,2.90 64.53,3.80 70.21,4.56 75.89,4.86 81.58,6.36 87.26,6.21 92.95,10.87 98.63,7.71 104.32,2.00 110.00,6.06" /><circle cx="110.00" cy="6.06" r="2.2" fill="#5b74db" /></svg>