<svg xmlns="http://www.w3.org/2000/svg" viewBox="0 0 112 24" width="112" height="24" role="img" aria-label="sparkline, start-relative percent move"><line data-guide="true" x1="2" y1="18.68" x2="111" y2="18.68" stroke="currentColor" stroke-opacity="0.16" stroke-width="0.8" /><line data-guide="true" x1="2" y1="10.44" x2="111" y2="10.44" stroke="currentColor" stroke-opacity="0.16" stroke-width="0.8" /><line data-guide="true" x1="2" y1="2.20" x2="111" y2="2.20" stroke="currentColor" stroke-opacity="0.16" stroke-width="0.8" /><text x="111" y="9.44" font-size="4" text-anchor="end" fill="currentColor" fill-opacity="0.42">10%</text><text x="111" y="1.20" font-size="4" text-anchor="end" fill="currentColor" fill-opacity="0.42">20%</text><polyline fill="none" stroke="#5b74db" stroke-width="1.8" points="2.00,18.68 7.68,21.28 13.37,20.65 19.05,19.58 24.74,20.30 30.42,14.56 36.11,19.44 41.79,20.07 47.47,22.00 53.16,20.83 58.84,20.83 64.53,20.34 70.21,17.65 75.89,15.90 81.58,17.47 87.26,19.67 92.95,7.38 98.63,3.57 104.32,2.00 110.00,6.26" /><circle cx="110.00" cy="6.26" r="2.2" fill="#5b74db" /></svg>