<svg xmlns="http://www.w3.org/2000/svg" viewBox="0 0 112 24" width="112" height="24" role="img" aria-label="sparkline, start-relative percent move"><line data-guide="true" x1="2" y1="20.87" x2="111" y2="20.87" stroke="currentColor" stroke-opacity="0.16" stroke-width="0.8" /><line data-guide="true" x1="2" y1="16.15" x2="111" y2="16.15" stroke="currentColor" stroke-opacity="0.16" stroke-width="0.8" /><line data-guide="true" x1="2" y1="11.44" x2="111" y2="11.44" stroke="currentColor" stroke-opacity="0.16" stroke-width="0.8" /><line data-guide="true" x1="2" y1="6.72" x2="111" y2="6.72" stroke="currentColor" stroke-opacity="0.16" stroke-width="0.8" /><text x="111" y="19.87" font-size="4" text-anchor="end" fill="currentColor" fill-opacity="0.42">-10%</text><text x="111" y="10.44" font-size="4" text-anchor="end" fill="currentColor" fill-opacity="0.42">10%</text><text x="111" y="5.72" font-size="4" text-anchor="end" fill="currentColor" fill-opacity="0.42">20%</text><polyline fill="none" stroke="#5b74db" stroke-width="1.8" points="2.00,16.15 7.68,16.35 13.37,17.61 19.05,20.54 24.74,22.00 30.42,20.41 36.11,20.80 41.79,15.49 47.47,9.51 53.16,5.46 58.84,2.00 64.53,7.71 70.21,6.52 75.89,5.79 81.58,7.38 87.26,7.98 92.95,8.31 98.63,8.71 104.32,9.18 110.00,8.91" /><circle cx="110.00" cy="8.91" r="2.2" fill="#5b74db" /></svg>