<svg xmlns="http://www.w3.org/2000/svg" viewBox="0 0 112 24" width="112" height="24" role="img" aria-label="sparkline, start-relative percent move"><line data-guide="true" x1="2" y1="16.18" x2="111" y2="16.18" stroke="currentColor" stroke-opacity="0.16" stroke-width="0.8" /><line data-guide="true" x1="2" y1="9.34" x2="111" y2="9.34" stroke="currentColor" stroke-opacity="0.16" stroke-width="0.8" /><line data-guide="true" x1="2" y1="2.51" x2="111" y2="2.51" stroke="currentColor" stroke-opacity="0.16" stroke-width="0.8" /><text x="111" y="8.34" font-size="4" text-anchor="end" fill="currentColor" fill-opacity="0.42">10%</text><text x="111" y="1.51" font-size="4" text-anchor="end" fill="currentColor" fill-opacity="0.42">20%</text><polyline fill="none" stroke="#5b74db" stroke-width="1.8" points="2.00,16.18 7.68,20.20 13.37,22.00 19.05,21.15 24.74,20.84 30.42,16.60 36.11,18.40 41.79,17.87 47.47,14.80 53.16,12.90 58.84,12.90 64.53,8.14 70.21,8.98 75.89,7.61 81.58,7.50 87.26,5.39 92.95,6.97 98.63,2.11 104.32,2.85 110.00,2.00" /><circle cx="110.00" cy="2.00" r="2.2" fill="#5b74db" /></svg>