<svg xmlns="http://www.w3.org/2000/svg" viewBox="0 0 112 24" width="112" height="24" role="img" aria-label="sparkline, start-relative percent move"><line data-guide="true" x1="2" y1="21.29" x2="111" y2="21.29" stroke="currentColor" stroke-opacity="0.16" stroke-width="0.8" /><line data-guide="true" x1="2" y1="16.17" x2="111" y2="16.17" stroke="currentColor" stroke-opacity="0.16" stroke-width="0.8" /><line data-guide="true" x1="2" y1="11.06" x2="111" y2="11.06" stroke="currentColor" stroke-opacity="0.16" stroke-width="0.8" /><text x="111" y="15.17" font-size="4" text-anchor="end" fill="currentColor" fill-opacity="0.42">10%</text><text x="111" y="10.06" font-size="4" text-anchor="end" fill="currentColor" fill-opacity="0.42">20%</text><polyline fill="none" stroke="#5b74db" stroke-width="1.8" points="2.00,21.29 7.68,20.22 13.37,20.35 19.05,20.93 24.74,20.87 30.42,22.00 36.11,20.38 41.79,20.48 47.47,20.68 53.16,21.06 58.84,18.19 64.53,2.00 70.21,13.34 75.89,16.22 81.58,13.89 87.26,14.92 92.95,17.02 98.63,19.71 104.32,18.22 110.00,19.19" /><circle cx="110.00" cy="19.19" r="2.2" fill="#5b74db" /></svg>