<svg xmlns="http://www.w3.org/2000/svg" viewBox="0 0 112 24" width="112" height="24" role="img" aria-label="sparkline, start-relative percent move"><line data-guide="true" x1="2" y1="20.25" x2="111" y2="20.25" stroke="currentColor" stroke-opacity="0.16" stroke-width="0.8" /><line data-guide="true" x1="2" y1="14.91" x2="111" y2="14.91" stroke="currentColor" stroke-opacity="0.16" stroke-width="0.8" /><line data-guide="true" x1="2" y1="9.58" x2="111" y2="9.58" stroke="currentColor" stroke-opacity="0.16" stroke-width="0.8" /><text x="111" y="13.91" font-size="4" text-anchor="end" fill="currentColor" fill-opacity="0.42">10%</text><text x="111" y="8.58" font-size="4" text-anchor="end" fill="currentColor" fill-opacity="0.42">20%</text><polyline fill="none" stroke="#5b74db" stroke-width="1.8" points="2.00,20.25 7.68,19.26 13.37,20.11 19.05,19.96 24.74,22.00 30.42,12.25 36.11,4.39 41.79,6.77 47.47,2.00 53.16,2.98 58.84,4.74 64.53,12.11 70.21,12.67 75.89,13.09 81.58,14.70 87.26,12.18 92.95,13.02 98.63,10.84 104.32,11.12 110.00,13.65" /><circle cx="110.00" cy="13.65" r="2.2" fill="#5b74db" /></svg>